# Blender v2.93.0 OBJ File: ''
# www.blender.org
mtllib Cone.mtl
o Cone
v 0.000000 -0.500000 -0.500000
v 0.049009 -0.500000 -0.497592
v 0.000000 0.500000 0.000000
v 0.097545 -0.500000 -0.490393
v 0.145142 -0.500000 -0.478470
v 0.191342 -0.500000 -0.461940
v 0.235698 -0.500000 -0.440961
v 0.277785 -0.500000 -0.415735
v 0.317197 -0.500000 -0.386505
v 0.353553 -0.500000 -0.353553
v 0.386505 -0.500000 -0.317197
v 0.415735 -0.500000 -0.277785
v 0.440961 -0.500000 -0.235698
v 0.461940 -0.500000 -0.191342
v 0.478470 -0.500000 -0.145142
v 0.490393 -0.500000 -0.097545
v 0.497592 -0.500000 -0.049009
v 0.500000 -0.500000 -0.000000
v 0.497592 -0.500000 0.049009
v 0.490393 -0.500000 0.097545
v 0.478470 -0.500000 0.145142
v 0.461940 -0.500000 0.191342
v 0.440961 -0.500000 0.235698
v 0.415735 -0.500000 0.277785
v 0.386505 -0.500000 0.317197
v 0.353553 -0.500000 0.353553
v 0.317197 -0.500000 0.386505
v 0.277785 -0.500000 0.415735
v 0.235698 -0.500000 0.440961
v 0.191342 -0.500000 0.461940
v 0.145142 -0.500000 0.478470
v 0.097545 -0.500000 0.490393
v 0.049009 -0.500000 0.497592
v 0.000000 -0.500000 0.500000
v -0.049009 -0.500000 0.497592
v -0.097545 -0.500000 0.490393
v -0.145142 -0.500000 0.478470
v -0.191342 -0.500000 0.461940
v -0.235698 -0.500000 0.440961
v -0.277785 -0.500000 0.415735
v -0.317197 -0.500000 0.386505
v -0.353553 -0.500000 0.353553
v -0.386505 -0.500000 0.317197
v -0.415735 -0.500000 0.277785
v -0.440961 -0.500000 0.235698
v -0.461940 -0.500000 0.191342
v -0.478470 -0.500000 0.145142
v -0.490393 -0.500000 0.097545
v -0.497592 -0.500000 0.049008
v -0.500000 -0.500000 -0.000000
v -0.497592 -0.500000 -0.049008
v -0.490393 -0.500000 -0.097545
v -0.478470 -0.500000 -0.145142
v -0.461940 -0.500000 -0.191342
v -0.440961 -0.500000 -0.235698
v -0.415735 -0.500000 -0.277785
v -0.386505 -0.500000 -0.317197
v -0.353553 -0.500000 -0.353553
v -0.317197 -0.500000 -0.386505
v -0.277785 -0.500000 -0.415735
v -0.235698 -0.500000 -0.440961
v -0.191342 -0.500000 -0.461940
v -0.145142 -0.500000 -0.478470
v -0.097545 -0.500000 -0.490393
v -0.049009 -0.500000 -0.497592
vt 0.250000 0.490000
vt 0.273524 0.488844
vt 0.250000 0.250000
vt 0.296822 0.485388
vt 0.319668 0.479666
vt 0.341844 0.471731
vt 0.363135 0.461661
vt 0.383337 0.449553
vt 0.402254 0.435522
vt 0.419706 0.419706
vt 0.435522 0.402254
vt 0.449553 0.383337
vt 0.461661 0.363135
vt 0.471731 0.341844
vt 0.479666 0.319668
vt 0.485388 0.296822
vt 0.488844 0.273524
vt 0.490000 0.250000
vt 0.488844 0.226476
vt 0.485388 0.203178
vt 0.479666 0.180332
vt 0.471731 0.158156
vt 0.461661 0.136865
vt 0.449553 0.116663
vt 0.435522 0.097746
vt 0.419706 0.080294
vt 0.402254 0.064477
vt 0.383337 0.050447
vt 0.363135 0.038339
vt 0.341844 0.028269
vt 0.319668 0.020334
vt 0.296822 0.014612
vt 0.273524 0.011156
vt 0.250000 0.010000
vt 0.226476 0.011156
vt 0.203178 0.014612
vt 0.180332 0.020334
vt 0.158156 0.028269
vt 0.136865 0.038339
vt 0.116663 0.050447
vt 0.097746 0.064477
vt 0.080294 0.080294
vt 0.064478 0.097746
vt 0.050447 0.116663
vt 0.038339 0.136865
vt 0.028269 0.158156
vt 0.020334 0.180332
vt 0.014612 0.203178
vt 0.011156 0.226476
vt 0.010000 0.250000
vt 0.011156 0.273524
vt 0.014612 0.296822
vt 0.020334 0.319668
vt 0.028269 0.341844
vt 0.038339 0.363135
vt 0.050447 0.383337
vt 0.064478 0.402254
vt 0.080294 0.419706
vt 0.097746 0.435523
vt 0.116663 0.449553
vt 0.136865 0.461661
vt 0.158156 0.471731
vt 0.180332 0.479666
vt 0.203178 0.485388
vt 0.750000 0.490000
vt 0.726476 0.488844
vt 0.703178 0.485388
vt 0.680332 0.479666
vt 0.658156 0.471731
vt 0.636865 0.461661
vt 0.616663 0.449553
vt 0.597746 0.435523
vt 0.580294 0.419706
vt 0.564478 0.402254
vt 0.550447 0.383337
vt 0.538339 0.363135
vt 0.528269 0.341844
vt 0.520334 0.319668
vt 0.514612 0.296822
vt 0.511156 0.273524
vt 0.510000 0.250000
vt 0.511156 0.226476
vt 0.514612 0.203178
vt 0.520334 0.180332
vt 0.528269 0.158156
vt 0.538339 0.136865
vt 0.550447 0.116663
vt 0.564478 0.097746
vt 0.580294 0.080294
vt 0.597746 0.064477
vt 0.616663 0.050447
vt 0.636865 0.038339
vt 0.658156 0.028269
vt 0.680332 0.020334
vt 0.703178 0.014612
vt 0.726476 0.011156
vt 0.750000 0.010000
vt 0.773524 0.011156
vt 0.796822 0.014612
vt 0.819668 0.020334
vt 0.841844 0.028269
vt 0.863135 0.038339
vt 0.883337 0.050447
vt 0.902254 0.064477
vt 0.919706 0.080294
vt 0.935522 0.097746
vt 0.949553 0.116663
vt 0.961661 0.136865
vt 0.971731 0.158156
vt 0.979666 0.180332
vt 0.985388 0.203178
vt 0.988844 0.226476
vt 0.990000 0.250000
vt 0.988844 0.273524
vt 0.985388 0.296822
vt 0.979666 0.319668
vt 0.971731 0.341844
vt 0.961661 0.363135
vt 0.949553 0.383337
vt 0.935522 0.402254
vt 0.919706 0.419706
vt 0.902254 0.435522
vt 0.883337 0.449553
vt 0.863135 0.461661
vt 0.841844 0.471731
vt 0.819668 0.479666
vt 0.796822 0.485388
vt 0.773524 0.488844
vt 0.226476 0.488844
vn -0.0439 -0.4468 0.8936
vn -0.1313 -0.4468 0.8850
vn -0.2174 -0.4468 0.8678
vn -0.3014 -0.4468 0.8423
vn -0.3825 -0.4468 0.8087
vn -0.4599 -0.4468 0.7674
vn -0.5329 -0.4468 0.7186
vn -0.6008 -0.4468 0.6629
vn -0.6629 -0.4468 0.6008
vn -0.7186 -0.4468 0.5329
vn -0.7674 -0.4468 0.4599
vn -0.8087 -0.4468 0.3825
vn -0.8423 -0.4468 0.3014
vn -0.8678 -0.4468 0.2174
vn -0.8850 -0.4468 0.1313
vn -0.8936 -0.4468 0.0439
vn -0.8936 -0.4468 -0.0439
vn -0.8850 -0.4468 -0.1313
vn -0.8678 -0.4468 -0.2174
vn -0.8423 -0.4468 -0.3014
vn -0.8087 -0.4468 -0.3825
vn -0.7674 -0.4468 -0.4599
vn -0.7186 -0.4468 -0.5329
vn -0.6629 -0.4468 -0.6008
vn -0.6008 -0.4468 -0.6629
vn -0.5329 -0.4468 -0.7186
vn -0.4599 -0.4468 -0.7674
vn -0.3825 -0.4468 -0.8087
vn -0.3014 -0.4468 -0.8423
vn -0.2174 -0.4468 -0.8678
vn -0.1313 -0.4468 -0.8850
vn -0.0439 -0.4468 -0.8936
vn 0.0439 -0.4468 -0.8936
vn 0.1313 -0.4468 -0.8850
vn 0.2174 -0.4468 -0.8678
vn 0.3014 -0.4468 -0.8423
vn 0.3825 -0.4468 -0.8087
vn 0.4599 -0.4468 -0.7674
vn 0.5329 -0.4468 -0.7186
vn 0.6008 -0.4468 -0.6629
vn 0.6629 -0.4468 -0.6008
vn 0.7186 -0.4468 -0.5329
vn 0.7674 -0.4468 -0.4599
vn 0.8087 -0.4468 -0.3825
vn 0.8423 -0.4468 -0.3014
vn 0.8678 -0.4468 -0.2174
vn 0.8850 -0.4468 -0.1313
vn 0.8936 -0.4468 -0.0439
vn 0.8936 -0.4468 0.0439
vn 0.8850 -0.4468 0.1313
vn 0.8678 -0.4468 0.2174
vn 0.8423 -0.4468 0.3014
vn 0.8087 -0.4468 0.3825
vn 0.7674 -0.4468 0.4599
vn 0.7186 -0.4468 0.5329
vn 0.6629 -0.4468 0.6008
vn 0.6008 -0.4468 0.6629
vn 0.5329 -0.4468 0.7186
vn 0.4599 -0.4468 0.7674
vn 0.3825 -0.4468 0.8087
vn 0.3014 -0.4468 0.8423
vn 0.2174 -0.4468 0.8678
vn 0.0000 1.0000 0.0000
vn 0.1313 -0.4468 0.8850
vn 0.0439 -0.4468 0.8936
usemtl None
s 1
f 1/1/1 2/2/1 3/3/1
f 2/2/2 4/4/2 3/3/2
f 4/4/3 5/5/3 3/3/3
f 5/5/4 6/6/4 3/3/4
f 6/6/5 7/7/5 3/3/5
f 7/7/6 8/8/6 3/3/6
f 8/8/7 9/9/7 3/3/7
f 9/9/8 10/10/8 3/3/8
f 10/10/9 11/11/9 3/3/9
f 11/11/10 12/12/10 3/3/10
f 12/12/11 13/13/11 3/3/11
f 13/13/12 14/14/12 3/3/12
f 14/14/13 15/15/13 3/3/13
f 15/15/14 16/16/14 3/3/14
f 16/16/15 17/17/15 3/3/15
f 17/17/16 18/18/16 3/3/16
f 18/18/17 19/19/17 3/3/17
f 19/19/18 20/20/18 3/3/18
f 20/20/19 21/21/19 3/3/19
f 21/21/20 22/22/20 3/3/20
f 22/22/21 23/23/21 3/3/21
f 23/23/22 24/24/22 3/3/22
f 24/24/23 25/25/23 3/3/23
f 25/25/24 26/26/24 3/3/24
f 26/26/25 27/27/25 3/3/25
f 27/27/26 28/28/26 3/3/26
f 28/28/27 29/29/27 3/3/27
f 29/29/28 30/30/28 3/3/28
f 30/30/29 31/31/29 3/3/29
f 31/31/30 32/32/30 3/3/30
f 32/32/31 33/33/31 3/3/31
f 33/33/32 34/34/32 3/3/32
f 34/34/33 35/35/33 3/3/33
f 35/35/34 36/36/34 3/3/34
f 36/36/35 37/37/35 3/3/35
f 37/37/36 38/38/36 3/3/36
f 38/38/37 39/39/37 3/3/37
f 39/39/38 40/40/38 3/3/38
f 40/40/39 41/41/39 3/3/39
f 41/41/40 42/42/40 3/3/40
f 42/42/41 43/43/41 3/3/41
f 43/43/42 44/44/42 3/3/42
f 44/44/43 45/45/43 3/3/43
f 45/45/44 46/46/44 3/3/44
f 46/46/45 47/47/45 3/3/45
f 47/47/46 48/48/46 3/3/46
f 48/48/47 49/49/47 3/3/47
f 49/49/48 50/50/48 3/3/48
f 50/50/49 51/51/49 3/3/49
f 51/51/50 52/52/50 3/3/50
f 52/52/51 53/53/51 3/3/51
f 53/53/52 54/54/52 3/3/52
f 54/54/53 55/55/53 3/3/53
f 55/55/54 56/56/54 3/3/54
f 56/56/55 57/57/55 3/3/55
f 57/57/56 58/58/56 3/3/56
f 58/58/57 59/59/57 3/3/57
f 59/59/58 60/60/58 3/3/58
f 60/60/59 61/61/59 3/3/59
f 61/61/60 62/62/60 3/3/60
f 62/62/61 63/63/61 3/3/61
f 63/63/62 64/64/62 3/3/62
f 1/65/63 65/66/63 64/67/63 63/68/63 62/69/63 61/70/63 60/71/63 59/72/63 58/73/63 57/74/63 56/75/63 55/76/63 54/77/63 53/78/63 52/79/63 51/80/63 50/81/63 49/82/63 48/83/63 47/84/63 46/85/63 45/86/63 44/87/63 43/88/63 42/89/63 41/90/63 40/91/63 39/92/63 38/93/63 37/94/63 36/95/63 35/96/63 34/97/63 33/98/63 32/99/63 31/100/63 30/101/63 29/102/63 28/103/63 27/104/63 26/105/63 25/106/63 24/107/63 23/108/63 22/109/63 21/110/63 20/111/63 19/112/63 18/113/63 17/114/63 16/115/63 15/116/63 14/117/63 13/118/63 12/119/63 11/120/63 10/121/63 9/122/63 8/123/63 7/124/63 6/125/63 5/126/63 4/127/63 2/128/63
f 64/64/64 65/129/64 3/3/64
f 65/129/65 1/1/65 3/3/65
